<mxfile host="app.diagrams.net" modified="2023-12-05T14:14:13.060Z" agent="Mozilla/5.0 (Windows NT 10.0; Win64; x64) AppleWebKit/537.36 (KHTML, like Gecko) Chrome/118.0.0.0 Safari/537.36" etag="GvkUu_li549LMaf0WtSG" version="22.1.5" type="device">
  <diagram name="PÃ¡gina-1" id="cPSNi7r_4B1eX6Dvwcpm">
    <mxGraphModel dx="1473" dy="844" grid="1" gridSize="10" guides="1" tooltips="1" connect="1" arrows="1" fold="1" page="1" pageScale="1" pageWidth="850" pageHeight="1100" math="0" shadow="0">
      <root>
        <mxCell id="0" />
        <mxCell id="1" parent="0" />
        <mxCell id="J08tAfY-yrUdoFLxVI3k-121" style="edgeStyle=none;curved=1;rounded=0;orthogonalLoop=1;jettySize=auto;html=1;exitX=0.5;exitY=0;exitDx=0;exitDy=0;fontSize=12;startSize=8;endSize=8;endArrow=none;endFill=0;" edge="1" parent="1" source="J08tAfY-yrUdoFLxVI3k-120">
          <mxGeometry relative="1" as="geometry">
            <mxPoint x="195.42105263157896" y="110" as="targetPoint" />
          </mxGeometry>
        </mxCell>
        <mxCell id="J08tAfY-yrUdoFLxVI3k-123" style="edgeStyle=none;curved=1;rounded=0;orthogonalLoop=1;jettySize=auto;html=1;exitX=1;exitY=0.5;exitDx=0;exitDy=0;fontSize=12;startSize=8;endSize=8;entryX=0;entryY=0.5;entryDx=0;entryDy=0;" edge="1" parent="1" source="J08tAfY-yrUdoFLxVI3k-120" target="J08tAfY-yrUdoFLxVI3k-124">
          <mxGeometry relative="1" as="geometry">
            <mxPoint x="430" y="249.68421052631584" as="targetPoint" />
          </mxGeometry>
        </mxCell>
        <mxCell id="J08tAfY-yrUdoFLxVI3k-120" value=":ProjetoManager" style="rounded=0;whiteSpace=wrap;html=1;fontSize=16;" vertex="1" parent="1">
          <mxGeometry x="110" y="220" width="170" height="60" as="geometry" />
        </mxCell>
        <mxCell id="J08tAfY-yrUdoFLxVI3k-122" value="CreateProject(nome, descricao)" style="text;html=1;align=center;verticalAlign=middle;resizable=0;points=[];autosize=1;strokeColor=none;fillColor=none;fontSize=16;" vertex="1" parent="1">
          <mxGeometry x="70" y="70" width="250" height="30" as="geometry" />
        </mxCell>
        <mxCell id="J08tAfY-yrUdoFLxVI3k-124" value=":DaoManager" style="rounded=0;whiteSpace=wrap;html=1;fontSize=16;" vertex="1" parent="1">
          <mxGeometry x="450" y="220" width="170" height="60" as="geometry" />
        </mxCell>
        <mxCell id="J08tAfY-yrUdoFLxVI3k-131" value="1. getProjetoDAO()" style="text;html=1;align=center;verticalAlign=middle;resizable=0;points=[];autosize=1;strokeColor=none;fillColor=none;fontSize=16;" vertex="1" parent="1">
          <mxGeometry x="280" y="220" width="160" height="30" as="geometry" />
        </mxCell>
        <mxCell id="J08tAfY-yrUdoFLxVI3k-132" value="1. P := create(nome, descricao)" style="text;html=1;align=center;verticalAlign=middle;resizable=0;points=[];autosize=1;strokeColor=none;fillColor=none;fontSize=16;" vertex="1" parent="1">
          <mxGeometry x="540" y="330" width="250" height="30" as="geometry" />
        </mxCell>
        <mxCell id="J08tAfY-yrUdoFLxVI3k-133" style="edgeStyle=none;curved=1;rounded=0;orthogonalLoop=1;jettySize=auto;html=1;fontSize=12;startSize=8;endSize=8;entryX=0.5;entryY=0;entryDx=0;entryDy=0;exitX=0.5;exitY=1;exitDx=0;exitDy=0;" edge="1" parent="1" target="J08tAfY-yrUdoFLxVI3k-134">
          <mxGeometry relative="1" as="geometry">
            <mxPoint x="535.421052631579" y="450" as="targetPoint" />
            <mxPoint x="535" y="280" as="sourcePoint" />
          </mxGeometry>
        </mxCell>
        <mxCell id="J08tAfY-yrUdoFLxVI3k-134" value=":ProjetoDAO" style="rounded=0;whiteSpace=wrap;html=1;fontSize=16;" vertex="1" parent="1">
          <mxGeometry x="450" y="430" width="170" height="60" as="geometry" />
        </mxCell>
        <mxCell id="J08tAfY-yrUdoFLxVI3k-135" style="edgeStyle=none;curved=1;rounded=0;orthogonalLoop=1;jettySize=auto;html=1;fontSize=12;startSize=8;endSize=8;entryX=0.5;entryY=0;entryDx=0;entryDy=0;exitX=0.5;exitY=1;exitDx=0;exitDy=0;" edge="1" parent="1" target="J08tAfY-yrUdoFLxVI3k-136" source="J08tAfY-yrUdoFLxVI3k-120">
          <mxGeometry relative="1" as="geometry">
            <mxPoint x="195.42105263157896" y="450" as="targetPoint" />
            <mxPoint x="195" y="280" as="sourcePoint" />
          </mxGeometry>
        </mxCell>
        <mxCell id="J08tAfY-yrUdoFLxVI3k-136" value="P: Projeto" style="rounded=0;whiteSpace=wrap;html=1;fontSize=16;" vertex="1" parent="1">
          <mxGeometry x="110" y="430" width="170" height="60" as="geometry" />
        </mxCell>
        <mxCell id="J08tAfY-yrUdoFLxVI3k-137" value="2. setName(nome)" style="text;html=1;align=center;verticalAlign=middle;resizable=0;points=[];autosize=1;strokeColor=none;fillColor=none;fontSize=16;" vertex="1" parent="1">
          <mxGeometry x="190" y="300" width="160" height="30" as="geometry" />
        </mxCell>
        <mxCell id="J08tAfY-yrUdoFLxVI3k-138" value="3. setDescription(descricao)" style="text;html=1;align=center;verticalAlign=middle;resizable=0;points=[];autosize=1;strokeColor=none;fillColor=none;fontSize=16;" vertex="1" parent="1">
          <mxGeometry x="190" y="330" width="220" height="30" as="geometry" />
        </mxCell>
      </root>
    </mxGraphModel>
  </diagram>
</mxfile>
